# Original V8 upright frame. Y up. No material or texture dependencies.
# Outer 471.101973935; opening430; top6.44; bottom-12. V7 UV0 unchanged.
o TableFrame_Upright_V8
v -235.5509796 5.239999771 235.5509796
v 235.5509796 5.239999771 235.5509796
v 235.5509796 5.239999771 -235.5509796
v -235.5509796 5.239999771 -235.5509796
v -235.5101013 5.550582886 235.5101013
v 235.5101013 5.550582886 235.5101013
v 235.5101013 5.550582886 -235.5101013
v -235.5101013 5.550582886 -235.5101013
v -235.390213 5.840000153 235.390213
v 235.390213 5.840000153 235.390213
v 235.390213 5.840000153 -235.390213
v -235.390213 5.840000153 -235.390213
v -235.1995087 6.088528156 235.1995087
v 235.1995087 6.088528156 235.1995087
v 235.1995087 6.088528156 -235.1995087
v -235.1995087 6.088528156 -235.1995087
v -234.9509888 6.279230595 234.9509888
v 234.9509888 6.279230595 234.9509888
v 234.9509888 6.279230595 -234.9509888
v -234.9509888 6.279230595 -234.9509888
v -234.6615753 6.399110794 234.6615753
v 234.6615753 6.399110794 234.6615753
v 234.6615753 6.399110794 -234.6615753
v -234.6615753 6.399110794 -234.6615753
v -234.3509827 6.440000057 234.3509827
v 234.3509827 6.440000057 234.3509827
v 234.3509827 6.440000057 -234.3509827
v -234.3509827 6.440000057 -234.3509827
v -216.4799957 6.440000057 216.4799957
v 216.4799957 6.440000057 216.4799957
v 216.4799957 6.440000057 -216.4799957
v -216.4799957 6.440000057 -216.4799957
v -216.0969543 6.401155472 216.0969543
v 216.0969543 6.401155472 216.0969543
v 216.0969543 6.401155472 -216.0969543
v -216.0969543 6.401155472 -216.0969543
v -215.7400055 6.287269115 215.7400055
v 215.7400055 6.287269115 215.7400055
v 215.7400055 6.287269115 -215.7400055
v -215.7400055 6.287269115 -215.7400055
v -215.4334869 6.106101513 215.4334869
v 215.4334869 6.106101513 215.4334869
v 215.4334869 6.106101513 -215.4334869
v -215.4334869 6.106101513 -215.4334869
v -215.198288 5.869999886 215.198288
v 215.198288 5.869999886 215.198288
v 215.198288 5.869999886 -215.198288
v -215.198288 5.869999886 -215.198288
v -215.0504303 5.595053673 215.0504303
v 215.0504303 5.595053673 215.0504303
v 215.0504303 5.595053673 -215.0504303
v -215.0504303 5.595053673 -215.0504303
v -215 5.300000191 215
v 215 5.300000191 215
v 215 5.300000191 -215
v -215 5.300000191 -215
v -215 1.481540084 215
v 215 1.481540084 215
v 215 1.481540084 -215
v -215 1.481540084 -215
v -215 0 215
v 215 0 215
v 215 0 -215
v -215 0 -215
v -215 -12 215
v 215 -12 215
v 215 -12 -215
v -215 -12 -215
v -216.9089355 -12 216.9089355
v 216.9089355 -12 216.9089355
v 216.9089355 -12 -216.9089355
v -216.9089355 -12 -216.9089355
v -233.6420593 -12 233.6420593
v 233.6420593 -12 233.6420593
v 233.6420593 -12 -233.6420593
v -233.6420593 -12 -233.6420593
v -235.5509796 -12 235.5509796
v 235.5509796 -12 235.5509796
v 235.5509796 -12 -235.5509796
v -235.5509796 -12 -235.5509796
vt 0.008230452426 0.008230452426
vt 0.9917695522 0.008230452426
vt 0.9914168119 0.009001711383
vt 0.008583186194 0.009001711383
vt 0.008230452426 0.2247694433
vt 0.9917695522 0.2247694433
vt 0.9914168119 0.2255406976
vt 0.008583186194 0.2255406976
vt 0.008230452426 0.4413084388
vt 0.9917695522 0.4413084388
vt 0.9914168119 0.4420796931
vt 0.008583186194 0.4420796931
vt 0.008230452426 0.6578474045
vt 0.9917695522 0.6578474045
vt 0.9914168119 0.6586186886
vt 0.008583186194 0.6586186886
vt 0.008583186194 0.009001711383
vt 0.9914168119 0.009001711383
vt 0.9910640717 0.009772970341
vt 0.008935919963 0.009772970341
vt 0.008583186194 0.2255406976
vt 0.9914168119 0.2255406976
vt 0.9910640717 0.2263119668
vt 0.008935919963 0.2263119668
vt 0.008583186194 0.4420796931
vt 0.9914168119 0.4420796931
vt 0.9910640717 0.4428509474
vt 0.008935919963 0.4428509474
vt 0.008583186194 0.6586186886
vt 0.9914168119 0.6586186886
vt 0.9910640717 0.6593899131
vt 0.008935919963 0.6593899131
vt 0.008935919963 0.009772970341
vt 0.9910640717 0.009772970341
vt 0.9907113314 0.01054422837
vt 0.009288653731 0.01054422837
vt 0.008935919963 0.2263119668
vt 0.9910640717 0.2263119668
vt 0.9907113314 0.2270832211
vt 0.009288653731 0.2270832211
vt 0.008935919963 0.4428509474
vt 0.9910640717 0.4428509474
vt 0.9907113314 0.4436222017
vt 0.009288653731 0.4436222017
vt 0.008935919963 0.6593899131
vt 0.9910640717 0.6593899131
vt 0.9907113314 0.6601611972
vt 0.009288653731 0.6601611972
vt 0.009288653731 0.01054422837
vt 0.9907113314 0.01054422837
vt 0.9903586507 0.01131548733
vt 0.0096413875 0.01131548733
vt 0.009288653731 0.2270832211
vt 0.9907113314 0.2270832211
vt 0.9903586507 0.2278544754
vt 0.0096413875 0.2278544754
vt 0.009288653731 0.4436222017
vt 0.9907113314 0.4436222017
vt 0.9903586507 0.4443934858
vt 0.0096413875 0.4443934858
vt 0.009288653731 0.6601611972
vt 0.9907113314 0.6601611972
vt 0.9903586507 0.6609324813
vt 0.0096413875 0.6609324813
vt 0.0096413875 0.01131548733
vt 0.9903586507 0.01131548733
vt 0.9900059104 0.01208674628
vt 0.009994121268 0.01208674628
vt 0.0096413875 0.2278544754
vt 0.9903586507 0.2278544754
vt 0.9900059104 0.2286257446
vt 0.009994121268 0.2286257446
vt 0.0096413875 0.4443934858
vt 0.9903586507 0.4443934858
vt 0.9900059104 0.4451647401
vt 0.009994121268 0.4451647401
vt 0.0096413875 0.6609324813
vt 0.9903586507 0.6609324813
vt 0.9900059104 0.6617037058
vt 0.009994121268 0.6617037058
vt 0.009994121268 0.01208674628
vt 0.9900059104 0.01208674628
vt 0.9896531701 0.01285800524
vt 0.01034685504 0.01285800524
vt 0.009994121268 0.2286257446
vt 0.9900059104 0.2286257446
vt 0.9896531701 0.2293969989
vt 0.01034685504 0.2293969989
vt 0.009994121268 0.4451647401
vt 0.9900059104 0.4451647401
vt 0.9896531701 0.4459359944
vt 0.01034685504 0.4459359944
vt 0.009994121268 0.6617037058
vt 0.9900059104 0.6617037058
vt 0.9896531701 0.6624749899
vt 0.01034685504 0.6624749899
vt 0.01034685504 0.01285800524
vt 0.9896531701 0.01285800524
vt 0.9506266713 0.05422049761
vt 0.04937331006 0.05422049761
vt 0.01034685504 0.2293969989
vt 0.9896531701 0.2293969989
vt 0.9506266713 0.2707594931
vt 0.04937331006 0.2707594931
vt 0.01034685504 0.4459359944
vt 0.9896531701 0.4459359944
vt 0.9506266713 0.4872984588
vt 0.04937331006 0.4872984588
vt 0.01034685504 0.6624749899
vt 0.9896531701 0.6624749899
vt 0.9506266713 0.7038374543
vt 0.04937331006 0.7038374543
vt 0.04937331006 0.0624509491
vt 0.9506266713 0.0624509491
vt 0.9503102899 0.0628663078
vt 0.04968967661 0.0628663078
vt 0.04937331006 0.2789899409
vt 0.9506266713 0.2789899409
vt 0.9503102899 0.2794052958
vt 0.04968967661 0.2794052958
vt 0.04937331006 0.4955289364
vt 0.9506266713 0.4955289364
vt 0.9503102899 0.4959442914
vt 0.04968967661 0.4959442914
vt 0.04937331006 0.7120679021
vt 0.9506266713 0.7120679021
vt 0.9503102899 0.7124832869
vt 0.04968967661 0.7124832869
vt 0.04968967661 0.0628663078
vt 0.9503102899 0.0628663078
vt 0.9500024319 0.06327050179
vt 0.04999754578 0.06327050179
vt 0.04968967661 0.2794052958
vt 0.9503102899 0.2794052958
vt 0.9500024319 0.2798094749
vt 0.04999754578 0.2798094749
vt 0.04968967661 0.4959442914
vt 0.9503102899 0.4959442914
vt 0.9500024319 0.4963484704
vt 0.04999754578 0.4963484704
vt 0.04968967661 0.7124832869
vt 0.9503102899 0.7124832869
vt 0.9500024319 0.712887466
vt 0.04999754578 0.712887466
vt 0.04999754578 0.06327050179
vt 0.9500024319 0.06327050179
vt 0.9497098327 0.06365461648
vt 0.05029011518 0.06365461648
vt 0.04999754578 0.2798094749
vt 0.9500024319 0.2798094749
vt 0.9497098327 0.2801935971
vt 0.05029011518 0.2801935971
vt 0.04999754578 0.4963484704
vt 0.9500024319 0.4963484704
vt 0.9497098327 0.4967325926
vt 0.05029011518 0.4967325926
vt 0.04999754578 0.712887466
vt 0.9500024319 0.712887466
vt 0.9497098327 0.7132715583
vt 0.05029011518 0.7132715583
vt 0.05029011518 0.06365461648
vt 0.9497098327 0.06365461648
vt 0.9494360089 0.06401413679
vt 0.05056395382 0.06401413679
vt 0.05029011518 0.2801935971
vt 0.9497098327 0.2801935971
vt 0.9494360089 0.2805531025
vt 0.05056395382 0.2805531025
vt 0.05029011518 0.4967325926
vt 0.9497098327 0.4967325926
vt 0.9494360089 0.497092098
vt 0.05056395382 0.497092098
vt 0.05029011518 0.7132715583
vt 0.9497098327 0.7132715583
vt 0.9494360089 0.7136310935
vt 0.05056395382 0.7136310935
vt 0.05056395382 0.06401413679
vt 0.9494360089 0.06401413679
vt 0.9491795301 0.06435091794
vt 0.05082046986 0.06435091794
vt 0.05056395382 0.2805531025
vt 0.9494360089 0.2805531025
vt 0.9491795301 0.2808898985
vt 0.05082046986 0.2808898985
vt 0.05056395382 0.497092098
vt 0.9494360089 0.497092098
vt 0.9491795301 0.497428894
vt 0.05082046986 0.497428894
vt 0.05056395382 0.7136310935
vt 0.9494360089 0.7136310935
vt 0.9491795301 0.7139678597
vt 0.05082046986 0.7139678597
vt 0.05082046986 0.06435091794
vt 0.9491795301 0.06435091794
vt 0.9489335418 0.06467383355
vt 0.05106643215 0.06467383355
vt 0.05082046986 0.2808898985
vt 0.9491795301 0.2808898985
vt 0.9489335418 0.2812128067
vt 0.05106643215 0.2812128067
vt 0.05082046986 0.497428894
vt 0.9491795301 0.497428894
vt 0.9489335418 0.4977518022
vt 0.05106643215 0.4977518022
vt 0.05082046986 0.7139678597
vt 0.9491795301 0.7139678597
vt 0.9489335418 0.7142907977
vt 0.05106643215 0.7142907977
vt 0.05106643215 0.07290428877
vt 0.9489335418 0.07290428877
vt 0.9448700547 0.08135305345
vt 0.05512992293 0.08135305345
vt 0.05106643215 0.2894432843
vt 0.9489335418 0.2894432843
vt 0.9448700547 0.2978920341
vt 0.05512992293 0.2978920341
vt 0.05106643215 0.5059822798
vt 0.9489335418 0.5059822798
vt 0.9448700547 0.5144309998
vt 0.05512992293 0.5144309998
vt 0.05106643215 0.7225212455
vt 0.9489335418 0.7225212455
vt 0.9448700547 0.7309700251
vt 0.05512992293 0.7309700251
vt 0.05512992293 0.08135305345
vt 0.9448700547 0.08135305345
vt 0.942386806 0.08463112265
vt 0.05761316791 0.08463112265
vt 0.05512992293 0.2978920341
vt 0.9448700547 0.2978920341
vt 0.942386806 0.3011701107
vt 0.05761316791 0.3011701107
vt 0.05512992293 0.5144309998
vt 0.9448700547 0.5144309998
vt 0.942386806 0.5177090764
vt 0.05761316791 0.5177090764
vt 0.05512992293 0.7309700251
vt 0.9448700547 0.7309700251
vt 0.942386806 0.7342481017
vt 0.05761316791 0.7342481017
vt 0.05761316791 0.08463112265
vt 0.942386806 0.08463112265
vt 0.942386806 0.105207257
vt 0.05761316791 0.105207257
vt 0.05761316791 0.3011701107
vt 0.942386806 0.3011701107
vt 0.942386806 0.3217462301
vt 0.05761316791 0.3217462301
vt 0.05761316791 0.5177090764
vt 0.942386806 0.5177090764
vt 0.942386806 0.5382852554
vt 0.05761316791 0.5382852554
vt 0.05761316791 0.7342481017
vt 0.942386806 0.7342481017
vt 0.942386806 0.7548242211
vt 0.05761316791 0.7548242211
vt 0.05761316791 0.1134377047
vt 0.942386806 0.1134377047
vt 0.9452087283 0.1184275001
vt 0.05479129776 0.1184275001
vt 0.05761316791 0.3299767077
vt 0.942386806 0.3299767077
vt 0.9452087283 0.3349664807
vt 0.05479129776 0.3349664807
vt 0.05761316791 0.5465157032
vt 0.942386806 0.5465157032
vt 0.9452087283 0.5515054464
vt 0.05479129776 0.5515054464
vt 0.05761316791 0.7630546689
vt 0.942386806 0.7630546689
vt 0.9452087283 0.7680444717
vt 0.05479129776 0.7680444717
vt 0.05479129776 0.1184275001
vt 0.9452087283 0.1184275001
vt 0.9889476895 0.1621664762
vt 0.01105232257 0.1621664762
vt 0.05479129776 0.3349664807
vt 0.9452087283 0.3349664807
vt 0.9889476895 0.3787054718
vt 0.01105232257 0.3787054718
vt 0.05479129776 0.5515054464
vt 0.9452087283 0.5515054464
vt 0.9889476895 0.5952444673
vt 0.01105232257 0.5952444673
vt 0.05479129776 0.7680444717
vt 0.9452087283 0.7680444717
vt 0.9889476895 0.811783433
vt 0.01105232257 0.811783433
vt 0.01105232257 0.1621664762
vt 0.9889476895 0.1621664762
vt 0.9917695522 0.1671562642
vt 0.008230452426 0.1671562642
vt 0.01105232257 0.3787054718
vt 0.9889476895 0.3787054718
vt 0.9917695522 0.3836952448
vt 0.008230452426 0.3836952448
vt 0.01105232257 0.5952444673
vt 0.9889476895 0.5952444673
vt 0.9917695522 0.6002342701
vt 0.008230452426 0.6002342701
vt 0.01105232257 0.811783433
vt 0.9889476895 0.811783433
vt 0.9917695522 0.8167732358
vt 0.008230452426 0.8167732358
vt 0.008230452426 0.1753867269
vt 0.9917695522 0.1753867269
vt 0.9917695522 0.2165389806
vt 0.008230452426 0.2165389806
vt 0.008230452426 0.3919257224
vt 0.9917695522 0.3919257224
vt 0.9917695522 0.4330779612
vt 0.008230452426 0.4330779612
vt 0.008230452426 0.6084647179
vt 0.9917695522 0.6084647179
vt 0.9917695522 0.6496169567
vt 0.008230452426 0.6496169567
vt 0.008230452426 0.8250036836
vt 0.9917695522 0.8250036836
vt 0.9917695522 0.8661559224
vt 0.008230452426 0.8661559224
vn 0 2.777948976e-05 1
vn 1.956708729e-06 2.777576447e-05 1.000000119
vn -4.689209163e-07 0.2587914169 0.9659332633
vn 1.78348273e-06 0.2587914169 0.9659332633
vn 1 -2.525746822e-06 -0
vn 1 -2.522487193e-06 -1.972541213e-06
vn 0.9659334421 0.2587906122 5.215406418e-07
vn 0.9659335017 0.2587906122 -1.840293407e-06
vn 0 2.777948976e-05 -1
vn -1.956708729e-06 2.777576447e-05 -1.000000119
vn 4.689209163e-07 0.2587914169 -0.9659332633
vn -1.78348273e-06 0.2587914169 -0.9659332633
vn -1 -2.525746822e-06 -0
vn -1 -2.522487193e-06 1.972541213e-06
vn -0.9659334421 0.2587906122 -5.215406418e-07
vn -0.9659335017 0.2587906122 1.840293407e-06
vn 1.78348273e-06 0.2587914169 0.9659332633
vn -4.689209163e-07 0.2587914169 0.9659332633
vn 1.05984509e-06 0.4999531507 0.8660523891
vn 1.421198249e-06 0.4999531507 0.8660524487
vn 0.9659335017 0.2587906122 -1.840293407e-06
vn 0.9659334421 0.2587906122 5.215406418e-07
vn 0.8660301566 0.4999916852 -1.044943929e-06
vn 0.8660301566 0.4999916852 -1.445412636e-06
vn -1.78348273e-06 0.2587914169 -0.9659332633
vn 4.689209163e-07 0.2587914169 -0.9659332633
vn -1.05984509e-06 0.4999531507 -0.8660523891
vn -1.421198249e-06 0.4999531507 -0.8660524487
vn -0.9659335017 0.2587906122 1.840293407e-06
vn -0.9659334421 0.2587906122 -5.215406418e-07
vn -0.8660301566 0.4999916852 1.044943929e-06
vn -0.8660301566 0.4999916852 1.445412636e-06
vn 1.421198249e-06 0.4999531507 0.8660524487
vn 1.05984509e-06 0.4999531507 0.8660523891
vn 1.287087798e-06 0.7070533633 0.7071600556
vn -2.944841981e-06 0.7070534229 0.7071600556
vn 0.8660301566 0.4999916852 -1.445412636e-06
vn 0.8660301566 0.4999916852 -1.044943929e-06
vn 0.7071308494 0.7070826292 -1.43237412e-06
vn 0.7071308494 0.7070826888 3.069639206e-06
vn -1.421198249e-06 0.4999531507 -0.8660524487
vn -1.05984509e-06 0.4999531507 -0.8660523891
vn -1.287087798e-06 0.7070533633 -0.7071600556
vn 2.944841981e-06 0.7070534229 -0.7071600556
vn -0.8660301566 0.4999916852 1.445412636e-06
vn -0.8660301566 0.4999916852 1.044943929e-06
vn -0.7071308494 0.7070826292 1.43237412e-06
vn -0.7071308494 0.7070826888 -3.069639206e-06
vn -2.944841981e-06 0.7070534229 0.7071600556
vn 1.287087798e-06 0.7070533633 0.7071600556
vn 4.30829823e-06 0.8659983277 0.5000468493
vn 3.799796104e-07 0.8659983277 0.5000468493
vn 0.7071308494 0.7070826888 3.069639206e-06
vn 0.7071308494 0.7070826292 -1.43237412e-06
vn 0.5000378489 0.8660035133 -4.334375262e-06
vn 0.5000378489 0.8660035729 -3.054738045e-07
vn 2.944841981e-06 0.7070534229 -0.7071600556
vn -1.287087798e-06 0.7070533633 -0.7071600556
vn -4.30829823e-06 0.8659983277 -0.5000468493
vn -3.799796104e-07 0.8659983277 -0.5000468493
vn -0.7071308494 0.7070826888 -3.069639206e-06
vn -0.7071308494 0.7070826292 1.43237412e-06
vn -0.5000378489 0.8660035133 4.334375262e-06
vn -0.5000378489 0.8660035729 3.054738045e-07
vn 3.799796104e-07 0.8659983277 0.5000468493
vn 4.30829823e-06 0.8659983277 0.5000468493
vn 3.278255463e-07 0.9659230113 0.258829385
vn -9.350478649e-07 0.9659230113 0.258829385
vn 0.5000378489 0.8660035729 -3.054738045e-07
vn 0.5000378489 0.8660035133 -4.334375262e-06
vn 0.2588484585 0.9659179449 -2.235174179e-07
vn 0.2588484585 0.9659179449 9.164214134e-07
vn -3.799796104e-07 0.8659983277 -0.5000468493
vn -4.30829823e-06 0.8659983277 -0.5000468493
vn -3.278255463e-07 0.9659230113 -0.258829385
vn 9.350478649e-07 0.9659230113 -0.258829385
vn -0.5000378489 0.8660035729 3.054738045e-07
vn -0.5000378489 0.8660035133 4.334375262e-06
vn -0.2588484585 0.9659179449 2.235174179e-07
vn -0.2588484585 0.9659179449 -9.164214134e-07
vn -9.350478649e-07 0.9659230113 0.258829385
vn 3.278255463e-07 0.9659230113 0.258829385
vn 8.165836334e-06 0.9999999404 5.9209764e-05
vn -9.186565876e-06 0.9999999404 5.921721458e-05
vn 0.2588484585 0.9659179449 9.164214134e-07
vn 0.2588484585 0.9659179449 -2.235174179e-07
vn 6.002932787e-05 1 -8.627772331e-06
vn 6.003305316e-05 1 7.845461369e-06
vn 9.350478649e-07 0.9659230113 -0.258829385
vn -3.278255463e-07 0.9659230113 -0.258829385
vn -8.165836334e-06 0.9999999404 -5.9209764e-05
vn 9.186565876e-06 0.9999999404 -5.921721458e-05
vn -0.2588484585 0.9659179449 -9.164214134e-07
vn -0.2588484585 0.9659179449 2.235174179e-07
vn -6.002932787e-05 1 8.627772331e-06
vn -6.003305316e-05 1 -7.845461369e-06
vn -9.186565876e-06 0.9999999404 5.921721458e-05
vn 8.165836334e-06 0.9999999404 5.9209764e-05
vn -1.198612154e-06 1 -5.830079317e-06
vn 1.592561603e-07 1 -5.823560059e-06
vn 6.003305316e-05 1 7.845461369e-06
vn 6.002932787e-05 1 -8.627772331e-06
vn -7.734633982e-06 1 2.05822289e-06
vn -7.732771337e-06 1 -2.295710146e-06
vn 9.186565876e-06 0.9999999404 -5.921721458e-05
vn -8.165836334e-06 0.9999999404 -5.9209764e-05
vn 1.198612154e-06 1 5.830079317e-06
vn -1.592561603e-07 1 5.823560059e-06
vn -6.003305316e-05 1 -7.845461369e-06
vn -6.002932787e-05 1 8.627772331e-06
vn 7.734633982e-06 1 -2.05822289e-06
vn 7.732771337e-06 1 2.295710146e-06
vn 1.592561603e-07 1 -5.823560059e-06
vn -1.198612154e-06 1 -5.830079317e-06
vn 1.901760697e-06 0.9793628454 -0.2021096498
vn -1.68569386e-06 0.979362905 -0.2021096647
vn -7.732771337e-06 1 -2.295710146e-06
vn -7.734633982e-06 1 2.05822289e-06
vn -0.2021168321 0.9793614149 -1.888722181e-06
vn -0.2021168172 0.9793613553 1.80862844e-06
vn -1.592561603e-07 1 5.823560059e-06
vn 1.198612154e-06 1 5.830079317e-06
vn -1.901760697e-06 0.9793628454 0.2021096498
vn 1.68569386e-06 0.979362905 0.2021096647
vn 7.732771337e-06 1 2.295710146e-06
vn 7.734633982e-06 1 -2.05822289e-06
vn 0.2021168321 0.9793614149 1.888722181e-06
vn 0.2021168172 0.9793613553 -1.80862844e-06
vn -1.68569386e-06 0.979362905 -0.2021096647
vn 1.901760697e-06 0.9793628454 -0.2021096498
vn 3.261491656e-06 0.9137296677 -0.4063227177
vn -2.697110176e-06 0.9137296677 -0.4063227177
vn -0.2021168172 0.9793613553 1.80862844e-06
vn -0.2021168321 0.9793614149 -1.888722181e-06
vn -0.4063346386 0.9137243032 -3.31364572e-06
vn -0.4063346386 0.9137243032 2.676621079e-06
vn 1.68569386e-06 0.979362905 0.2021096647
vn -1.901760697e-06 0.9793628454 0.2021096498
vn -3.261491656e-06 0.9137296677 0.4063227177
vn 2.697110176e-06 0.9137296677 0.4063227177
vn 0.2021168172 0.9793613553 -1.80862844e-06
vn 0.2021168321 0.9793614149 1.888722181e-06
vn 0.4063346386 0.9137243032 3.31364572e-06
vn 0.4063346386 0.9137243032 -2.676621079e-06
vn -2.697110176e-06 0.9137296677 -0.4063227177
vn 3.261491656e-06 0.9137296677 -0.4063227177
vn 1.80490315e-06 0.7922385335 -0.6102115512
vn -7.022172213e-07 0.7922385335 -0.6102115512
vn -0.4063346386 0.9137243032 2.676621079e-06
vn -0.4063346386 0.9137243032 -3.31364572e-06
vn -0.6102255583 0.7922276258 -1.853331923e-06
vn -0.6102256179 0.7922276855 7.636845112e-07
vn 2.697110176e-06 0.9137296677 0.4063227177
vn -3.261491656e-06 0.9137296677 0.4063227177
vn -1.80490315e-06 0.7922385335 0.6102115512
vn 7.022172213e-07 0.7922385335 0.6102115512
vn 0.4063346386 0.9137243032 -2.676621079e-06
vn 0.4063346386 0.9137243032 3.31364572e-06
vn 0.6102255583 0.7922276258 1.853331923e-06
vn 0.6102256179 0.7922276855 -7.636845112e-07
vn -7.022172213e-07 0.7922385335 -0.6102115512
vn 1.80490315e-06 0.7922385335 -0.6102115512
vn -7.655471563e-07 0.5997851491 -0.8001611233
vn -1.437962055e-06 0.5997852087 -0.8001611233
vn -0.6102256179 0.7922276855 7.636845112e-07
vn -0.6102255583 0.7922276258 -1.853331923e-06
vn -0.8001676798 0.5997763872 7.394701242e-07
vn -0.8001676202 0.5997763872 1.469627023e-06
vn 7.022172213e-07 0.7922385335 0.6102115512
vn -1.80490315e-06 0.7922385335 0.6102115512
vn 7.655471563e-07 0.5997851491 0.8001611233
vn 1.437962055e-06 0.5997852087 0.8001611233
vn 0.6102256179 0.7922276855 -7.636845112e-07
vn 0.6102255583 0.7922276258 1.853331923e-06
vn 0.8001676798 0.5997763872 -7.394701242e-07
vn 0.8001676202 0.5997763872 -1.469627023e-06
vn -1.437962055e-06 0.5997852087 -0.8001611233
vn -7.655471563e-07 0.5997851491 -0.8001611233
vn -3.362074494e-07 0.3285613954 -0.9444826245
vn 1.498498023e-06 0.3285613954 -0.9444826245
vn -0.8001676202 0.5997763872 1.469627023e-06
vn -0.8001676798 0.5997763872 7.394701242e-07
vn -0.9444775581 0.3285757899 3.101304173e-07
vn -0.9444776177 0.3285757899 -1.462176442e-06
vn 1.437962055e-06 0.5997852087 0.8001611233
vn 7.655471563e-07 0.5997851491 0.8001611233
vn 3.362074494e-07 0.3285613954 0.9444826245
vn -1.498498023e-06 0.3285613954 0.9444826245
vn 0.8001676202 0.5997763872 -1.469627023e-06
vn 0.8001676798 0.5997763872 -7.394701242e-07
vn 0.9444775581 0.3285757899 -3.101304173e-07
vn 0.9444776177 0.3285757899 1.462176442e-06
vn 1.498498023e-06 0.3285613954 -0.9444826245
vn -3.362074494e-07 0.3285613954 -0.9444826245
vn 0 1.318752766e-06 -1
vn 3.337860107e-06 1.313630491e-06 -1
vn -0.9444776177 0.3285757899 -1.462176442e-06
vn -0.9444775581 0.3285757899 3.101304173e-07
vn -1 1.393258572e-06 -0
vn -1 1.391628757e-06 -3.358349204e-06
vn -1.498498023e-06 0.3285613954 0.9444826245
vn 3.362074494e-07 0.3285613954 0.9444826245
vn 0 1.318752766e-06 1
vn -3.337860107e-06 1.313630491e-06 1
vn 0.9444776177 0.3285757899 1.462176442e-06
vn 0.9444775581 0.3285757899 -3.101304173e-07
vn 1 1.393258572e-06 -0
vn 1 1.391628757e-06 3.358349204e-06
vn 3.337860107e-06 1.313630491e-06 -1
vn 0 1.318752766e-06 -1
vn 0 0 -1
vn 0 0 -1
vn -1 1.391628757e-06 -3.358349204e-06
vn -1 1.393258572e-06 -0
vn -1 0 -0
vn -1 0 -0
vn -3.337860107e-06 1.313630491e-06 1
vn 0 1.318752766e-06 1
vn 0 0 1
vn 0 0 1
vn 1 1.391628757e-06 3.358349204e-06
vn 1 1.393258572e-06 -0
vn 1 0 -0
vn 1 0 -0
vn 0 0 -1
vn 0 0 -1
vn 0 0 -1
vn 0 0 -1
vn -1 0 -0
vn -1 0 -0
vn -1 0 -0
vn -1 0 -0
vn 0 0 1
vn 0 0 1
vn 0 0 1
vn 0 0 1
vn 1 0 -0
vn 1 0 -0
vn 1 0 -0
vn 1 0 -0
vn 0 0 -1
vn 0 0 -1
vn 0 0 -1
vn 0 0 -1
vn -1 0 -0
vn -1 0 -0
vn -1 0 -0
vn -1 0 -0
vn 0 0 1
vn 0 0 1
vn 0 0 1
vn 0 0 1
vn 1 0 -0
vn 1 0 -0
vn 1 0 -0
vn 1 0 -0
vn 0 -1 -0
vn 0 -1 -0
vn 0 -1 -0
vn 0 -1 -0
vn 0 -1 -0
vn 0 -1 -0
vn 0 -1 -0
vn 0 -1 -0
vn 0 -1 -0
vn 0 -1 -0
vn 0 -1 -0
vn 0 -1 -0
vn 0 -1 -0
vn 0 -1 -0
vn 0 -1 -0
vn 0 -1 -0
vn 0 -1 -0
vn 0 -1 -0
vn 0 -1 -0
vn 0 -1 -0
vn 0 -1 -0
vn 0 -1 -0
vn 0 -1 -0
vn 0 -1 -0
vn 0 -1 -0
vn 0 -1 -0
vn 0 -1 -0
vn 0 -1 -0
vn 0 -1 -0
vn 0 -1 -0
vn 0 -1 -0
vn 0 -1 -0
vn 0 -1 -0
vn 0 -1 -0
vn 0 -1 -0
vn 0 -1 -0
vn 0 -1 -0
vn 0 -1 -0
vn 0 -1 -0
vn 0 -1 -0
vn 0 -1 -0
vn 0 -1 -0
vn 0 -1 -0
vn 0 -1 -0
vn 0 -1 -0
vn 0 -1 -0
vn 0 -1 -0
vn 0 -1 -0
vn 0 0 0.9999999404
vn 0 0 0.9999999404
vn 1.956708729e-06 2.777576447e-05 1.000000119
vn 0 2.777948976e-05 1
vn 0.9999999404 0 -0
vn 0.9999999404 0 -0
vn 1 -2.522487193e-06 -1.972541213e-06
vn 1 -2.525746822e-06 -0
vn 0 0 -0.9999999404
vn 0 0 -0.9999999404
vn -1.956708729e-06 2.777576447e-05 -1.000000119
vn 0 2.777948976e-05 -1
vn -0.9999999404 0 -0
vn -0.9999999404 0 -0
vn -1 -2.522487193e-06 1.972541213e-06
vn -1 -2.525746822e-06 -0
g UpperRail_Rail1_Segment0
s 1
f 1/1/1 2/2/2 6/3/3 5/4/4
g UpperRail_Rail2_Segment0
s 2
f 2/5/5 3/6/6 7/7/7 6/8/8
g UpperRail_Rail3_Segment0
s 3
f 3/9/9 4/10/10 8/11/11 7/12/12
g UpperRail_Rail4_Segment0
s 4
f 4/13/13 1/14/14 5/15/15 8/16/16
g UpperRail_Rail1_Segment1
s 1
f 5/17/17 6/18/18 10/19/19 9/20/20
g UpperRail_Rail2_Segment1
s 2
f 6/21/21 7/22/22 11/23/23 10/24/24
g UpperRail_Rail3_Segment1
s 3
f 7/25/25 8/26/26 12/27/27 11/28/28
g UpperRail_Rail4_Segment1
s 4
f 8/29/29 5/30/30 9/31/31 12/32/32
g UpperRail_Rail1_Segment2
s 1
f 9/33/33 10/34/34 14/35/35 13/36/36
g UpperRail_Rail2_Segment2
s 2
f 10/37/37 11/38/38 15/39/39 14/40/40
g UpperRail_Rail3_Segment2
s 3
f 11/41/41 12/42/42 16/43/43 15/44/44
g UpperRail_Rail4_Segment2
s 4
f 12/45/45 9/46/46 13/47/47 16/48/48
g UpperRail_Rail1_Segment3
s 1
f 13/49/49 14/50/50 18/51/51 17/52/52
g UpperRail_Rail2_Segment3
s 2
f 14/53/53 15/54/54 19/55/55 18/56/56
g UpperRail_Rail3_Segment3
s 3
f 15/57/57 16/58/58 20/59/59 19/60/60
g UpperRail_Rail4_Segment3
s 4
f 16/61/61 13/62/62 17/63/63 20/64/64
g UpperRail_Rail1_Segment4
s 1
f 17/65/65 18/66/66 22/67/67 21/68/68
g UpperRail_Rail2_Segment4
s 2
f 18/69/69 19/70/70 23/71/71 22/72/72
g UpperRail_Rail3_Segment4
s 3
f 19/73/73 20/74/74 24/75/75 23/76/76
g UpperRail_Rail4_Segment4
s 4
f 20/77/77 17/78/78 21/79/79 24/80/80
g UpperRail_Rail1_Segment5
s 1
f 21/81/81 22/82/82 26/83/83 25/84/84
g UpperRail_Rail2_Segment5
s 2
f 22/85/85 23/86/86 27/87/87 26/88/88
g UpperRail_Rail3_Segment5
s 3
f 23/89/89 24/90/90 28/91/91 27/92/92
g UpperRail_Rail4_Segment5
s 4
f 24/93/93 21/94/94 25/95/95 28/96/96
g UpperRail_Rail1_Segment6
s 1
f 25/97/97 26/98/98 30/99/99 29/100/100
g UpperRail_Rail2_Segment6
s 2
f 26/101/101 27/102/102 31/103/103 30/104/104
g UpperRail_Rail3_Segment6
s 3
f 27/105/105 28/106/106 32/107/107 31/108/108
g UpperRail_Rail4_Segment6
s 4
f 28/109/109 25/110/110 29/111/111 32/112/112
g Shoulder_Rail1_Segment7
s 1
f 29/113/113 30/114/114 34/115/115 33/116/116
g Shoulder_Rail2_Segment7
s 2
f 30/117/117 31/118/118 35/119/119 34/120/120
g Shoulder_Rail3_Segment7
s 3
f 31/121/121 32/122/122 36/123/123 35/124/124
g Shoulder_Rail4_Segment7
s 4
f 32/125/125 29/126/126 33/127/127 36/128/128
g Shoulder_Rail1_Segment8
s 1
f 33/129/129 34/130/130 38/131/131 37/132/132
g Shoulder_Rail2_Segment8
s 2
f 34/133/133 35/134/134 39/135/135 38/136/136
g Shoulder_Rail3_Segment8
s 3
f 35/137/137 36/138/138 40/139/139 39/140/140
g Shoulder_Rail4_Segment8
s 4
f 36/141/141 33/142/142 37/143/143 40/144/144
g Shoulder_Rail1_Segment9
s 1
f 37/145/145 38/146/146 42/147/147 41/148/148
g Shoulder_Rail2_Segment9
s 2
f 38/149/149 39/150/150 43/151/151 42/152/152
g Shoulder_Rail3_Segment9
s 3
f 39/153/153 40/154/154 44/155/155 43/156/156
g Shoulder_Rail4_Segment9
s 4
f 40/157/157 37/158/158 41/159/159 44/160/160
g Shoulder_Rail1_Segment10
s 1
f 41/161/161 42/162/162 46/163/163 45/164/164
g Shoulder_Rail2_Segment10
s 2
f 42/165/165 43/166/166 47/167/167 46/168/168
g Shoulder_Rail3_Segment10
s 3
f 43/169/169 44/170/170 48/171/171 47/172/172
g Shoulder_Rail4_Segment10
s 4
f 44/173/173 41/174/174 45/175/175 48/176/176
g Shoulder_Rail1_Segment11
s 1
f 45/177/177 46/178/178 50/179/179 49/180/180
g Shoulder_Rail2_Segment11
s 2
f 46/181/181 47/182/182 51/183/183 50/184/184
g Shoulder_Rail3_Segment11
s 3
f 47/185/185 48/186/186 52/187/187 51/188/188
g Shoulder_Rail4_Segment11
s 4
f 48/189/189 45/190/190 49/191/191 52/192/192
g Shoulder_Rail1_Segment12
s 1
f 49/193/193 50/194/194 54/195/195 53/196/196
g Shoulder_Rail2_Segment12
s 2
f 50/197/197 51/198/198 55/199/199 54/200/200
g Shoulder_Rail3_Segment12
s 3
f 51/201/201 52/202/202 56/203/203 55/204/204
g Shoulder_Rail4_Segment12
s 4
f 52/205/205 49/206/206 53/207/207 56/208/208
g InnerFaceAndWall_Rail1_Segment13
s 1
f 53/209/209 54/210/210 58/211/211 57/212/212
g InnerFaceAndWall_Rail2_Segment13
s 2
f 54/213/213 55/214/214 59/215/215 58/216/216
g InnerFaceAndWall_Rail3_Segment13
s 3
f 55/217/217 56/218/218 60/219/219 59/220/220
g InnerFaceAndWall_Rail4_Segment13
s 4
f 56/221/221 53/222/222 57/223/223 60/224/224
g InnerFaceAndWall_Rail1_Segment14
s 1
f 57/225/225 58/226/226 62/227/227 61/228/228
g InnerFaceAndWall_Rail2_Segment14
s 2
f 58/229/229 59/230/230 63/231/231 62/232/232
g InnerFaceAndWall_Rail3_Segment14
s 3
f 59/233/233 60/234/234 64/235/235 63/236/236
g InnerFaceAndWall_Rail4_Segment14
s 4
f 60/237/237 57/238/238 61/239/239 64/240/240
g InnerFaceAndWall_Rail1_Segment15
s 1
f 61/241/241 62/242/242 66/243/243 65/244/244
g InnerFaceAndWall_Rail2_Segment15
s 2
f 62/245/245 63/246/246 67/247/247 66/248/248
g InnerFaceAndWall_Rail3_Segment15
s 3
f 63/249/249 64/250/250 68/251/251 67/252/252
g InnerFaceAndWall_Rail4_Segment15
s 4
f 64/253/253 61/254/254 65/255/255 68/256/256
g Underside_Rail1_Segment16
s 1
f 65/257/257 66/258/258 70/259/259 69/260/260
g Underside_Rail2_Segment16
s 2
f 66/261/261 67/262/262 71/263/263 70/264/264
g Underside_Rail3_Segment16
s 3
f 67/265/265 68/266/266 72/267/267 71/268/268
g Underside_Rail4_Segment16
s 4
f 68/269/269 65/270/270 69/271/271 72/272/272
g Underside_Rail1_Segment17
s 1
f 69/273/273 70/274/274 74/275/275 73/276/276
g Underside_Rail2_Segment17
s 2
f 70/277/277 71/278/278 75/279/279 74/280/280
g Underside_Rail3_Segment17
s 3
f 71/281/281 72/282/282 76/283/283 75/284/284
g Underside_Rail4_Segment17
s 4
f 72/285/285 69/286/286 73/287/287 76/288/288
g Underside_Rail1_Segment18
s 1
f 73/289/289 74/290/290 78/291/291 77/292/292
g Underside_Rail2_Segment18
s 2
f 74/293/293 75/294/294 79/295/295 78/296/296
g Underside_Rail3_Segment18
s 3
f 75/297/297 76/298/298 80/299/299 79/300/300
g Underside_Rail4_Segment18
s 4
f 76/301/301 73/302/302 77/303/303 80/304/304
g OuterWall_Rail1_Segment19
s 1
f 77/305/305 78/306/306 2/307/307 1/308/308
g OuterWall_Rail2_Segment19
s 2
f 78/309/309 79/310/310 3/311/311 2/312/312
g OuterWall_Rail3_Segment19
s 3
f 79/313/313 80/314/314 4/315/315 3/316/316
g OuterWall_Rail4_Segment19
s 4
f 80/317/317 77/318/318 1/319/319 4/320/320
